<svg width="71" height="38" viewBox="0 0 71 38" fill="none" xmlns="http://www.w3.org/2000/svg">
<path d="M5.57796 9.24401H1.96632V7.78635H5.57796C6.27738 7.78635 6.84373 7.67494 7.277 7.45211C7.71028 7.22929 8.02595 6.91981 8.22402 6.52367C8.42827 6.12754 8.5304 5.67569 8.5304 5.16815C8.5304 4.70393 8.42827 4.26756 8.22402 3.85904C8.02595 3.45053 7.71028 3.12248 7.277 2.87489C6.84373 2.62112 6.27738 2.49423 5.57796 2.49423H2.38412V14.5454H0.592222V1.02729H5.57796C6.59924 1.02729 7.46269 1.2037 8.16831 1.55651C8.87392 1.90931 9.40933 2.39829 9.77451 3.02345C10.1397 3.64241 10.3223 4.35112 10.3223 5.14958C10.3223 6.01612 10.1397 6.75578 9.77451 7.36855C9.40933 7.98133 8.87392 8.44864 8.16831 8.7705C7.46269 9.08617 6.59924 9.24401 5.57796 9.24401ZM16.3665 14.7311C15.667 14.7311 15.0326 14.6135 14.4631 14.3783C13.8999 14.1369 13.414 13.7996 13.0055 13.3663C12.6032 12.933 12.2937 12.4193 12.077 11.8251C11.8604 11.2309 11.7521 10.581 11.7521 9.87535V9.4854C11.7521 8.66837 11.8728 7.94109 12.1142 7.30356C12.3556 6.65984 12.6836 6.11516 13.0983 5.6695C13.513 5.22385 13.9835 4.88652 14.5096 4.6575C15.0357 4.42849 15.5804 4.31398 16.1436 4.31398C16.8616 4.31398 17.4806 4.43777 18.0005 4.68536C18.5266 4.93294 18.9568 5.27956 19.291 5.72521C19.6253 6.16467 19.8729 6.6846 20.0338 7.28499C20.1947 7.8792 20.2752 8.52911 20.2752 9.23472V10.0053H12.7734V8.60338H18.5576V8.4734C18.5328 8.02775 18.44 7.59447 18.279 7.17358C18.1243 6.75269 17.8767 6.40607 17.5363 6.13373C17.1959 5.86138 16.7316 5.72521 16.1436 5.72521C15.7537 5.72521 15.3947 5.80877 15.0666 5.97589C14.7386 6.13682 14.457 6.37822 14.2218 6.70008C13.9865 7.02194 13.804 7.41498 13.674 7.8792C13.544 8.34342 13.479 8.87882 13.479 9.4854V9.87535C13.479 10.3519 13.544 10.8007 13.674 11.2216C13.8101 11.6363 14.0051 12.0015 14.2589 12.3171C14.5189 12.6328 14.8314 12.8804 15.1966 13.0599C15.568 13.2394 15.9889 13.3292 16.4593 13.3292C17.0659 13.3292 17.5796 13.2054 18.0005 12.9578C18.4214 12.7102 18.7897 12.379 19.1054 11.9643L20.1452 12.7907C19.9286 13.1187 19.6531 13.4313 19.3189 13.7284C18.9847 14.0255 18.573 14.2669 18.0841 14.4526C17.6013 14.6383 17.0287 14.7311 16.3665 14.7311ZM26.4865 4.49967V5.81806H21.0551V4.49967H26.4865ZM22.8934 2.05787H24.611V12.0572C24.611 12.3976 24.6636 12.6545 24.7689 12.8278C24.8741 13.0011 25.0102 13.1156 25.1774 13.1713C25.3445 13.227 25.524 13.2549 25.7159 13.2549C25.8582 13.2549 26.0068 13.2425 26.1615 13.2177C26.3224 13.1868 26.4431 13.162 26.5236 13.1435L26.5329 14.5454C26.3967 14.5887 26.2172 14.629 25.9944 14.6661C25.7778 14.7094 25.5147 14.7311 25.2052 14.7311C24.7843 14.7311 24.3975 14.6475 24.0447 14.4804C23.6919 14.3133 23.4102 14.0348 23.1998 13.6448C22.9955 13.2487 22.8934 12.7164 22.8934 12.0479V2.05787ZM35.9659 11.1287C35.9659 10.8131 35.9163 10.5345 35.8173 10.2931C35.7245 10.0456 35.5573 9.82274 35.316 9.62467C35.0807 9.4266 34.7527 9.23782 34.3318 9.05832C33.9171 8.87882 33.391 8.69623 32.7535 8.51054C32.085 8.31247 31.4815 8.09274 30.943 7.85134C30.4045 7.60376 29.9434 7.32213 29.5596 7.00646C29.1759 6.69079 28.8818 6.3287 28.6776 5.92018C28.4733 5.51167 28.3712 5.04435 28.3712 4.51824C28.3712 3.99212 28.4795 3.50623 28.6962 3.06058C28.9128 2.61493 29.2223 2.22808 29.6246 1.90003C30.0331 1.56579 30.519 1.30583 31.0823 1.12014C31.6455 0.934451 32.2738 0.841606 32.967 0.841606C33.9821 0.841606 34.8424 1.03658 35.5481 1.42652C36.2599 1.81028 36.8015 2.31473 37.1728 2.93989C37.5442 3.55885 37.7299 4.22114 37.7299 4.92675H35.9473C35.9473 4.4192 35.839 3.97046 35.6223 3.58051C35.4057 3.18437 35.0777 2.87489 34.6382 2.65207C34.1987 2.42305 33.6417 2.30854 32.967 2.30854C32.3295 2.30854 31.8033 2.40448 31.3886 2.59636C30.9739 2.78824 30.6645 3.0482 30.4602 3.37625C30.2621 3.7043 30.1631 4.07877 30.1631 4.49967C30.1631 4.78439 30.2219 5.04435 30.3395 5.27956C30.4633 5.50857 30.6521 5.72212 30.9059 5.92018C31.1658 6.11825 31.4939 6.30085 31.89 6.46796C32.2923 6.63508 32.772 6.79601 33.3291 6.95075C34.0966 7.16739 34.7589 7.40879 35.316 7.67494C35.873 7.94109 36.331 8.24129 36.69 8.57553C37.0552 8.90358 37.3245 9.27805 37.4978 9.69894C37.6773 10.1136 37.767 10.5841 37.767 11.1102C37.767 11.6611 37.6556 12.1593 37.4328 12.605C37.21 13.0506 36.8912 13.4313 36.4765 13.747C36.0618 14.0626 35.5635 14.3071 34.9817 14.4804C34.4061 14.6475 33.7624 14.7311 33.0506 14.7311C32.4254 14.7311 31.8095 14.6444 31.203 14.4711C30.6026 14.2978 30.0548 14.0379 29.5596 13.6912C29.0706 13.3446 28.6776 12.9175 28.3805 12.41C28.0896 11.8963 27.9441 11.3021 27.9441 10.6274H29.7267C29.7267 11.0916 29.8165 11.4908 29.996 11.8251C30.1755 12.1531 30.42 12.4255 30.7294 12.6421C31.0451 12.8587 31.401 13.0197 31.7972 13.1249C32.1995 13.2239 32.6173 13.2734 33.0506 13.2734C33.6757 13.2734 34.2049 13.1868 34.6382 13.0135C35.0715 12.8402 35.3995 12.5926 35.6223 12.2707C35.8514 11.9489 35.9659 11.5682 35.9659 11.1287ZM43.9969 4.49967V5.81806H38.5655V4.49967H43.9969ZM40.4038 2.05787H42.1214V12.0572C42.1214 12.3976 42.174 12.6545 42.2793 12.8278C42.3845 13.0011 42.5207 13.1156 42.6878 13.1713C42.8549 13.227 43.0344 13.2549 43.2263 13.2549C43.3686 13.2549 43.5172 13.2425 43.6719 13.2177C43.8329 13.1868 43.9536 13.162 44.034 13.1435L44.0433 14.5454C43.9071 14.5887 43.7276 14.629 43.5048 14.6661C43.2882 14.7094 43.0251 14.7311 42.7156 14.7311C42.2947 14.7311 41.9079 14.6475 41.5551 14.4804C41.2023 14.3133 40.9206 14.0348 40.7102 13.6448C40.5059 13.2487 40.4038 12.7164 40.4038 12.0479V2.05787ZM45.371 9.63395V9.42041C45.371 8.69623 45.4762 8.02465 45.6867 7.40569C45.8971 6.78054 46.2004 6.23895 46.5965 5.78092C46.9927 5.3167 47.4724 4.9577 48.0356 4.70393C48.5989 4.44396 49.2302 4.31398 49.9296 4.31398C50.6352 4.31398 51.2697 4.44396 51.8329 4.70393C52.4024 4.9577 52.8852 5.3167 53.2813 5.78092C53.6836 6.23895 53.99 6.78054 54.2005 7.40569C54.4109 8.02465 54.5161 8.69623 54.5161 9.42041V9.63395C54.5161 10.3581 54.4109 11.0297 54.2005 11.6487C53.99 12.2676 53.6836 12.8092 53.2813 13.2734C52.8852 13.7315 52.4055 14.0905 51.8422 14.3504C51.2852 14.6042 50.6538 14.7311 49.9482 14.7311C49.2426 14.7311 48.6081 14.6042 48.0449 14.3504C47.4816 14.0905 46.9989 13.7315 46.5965 13.2734C46.2004 12.8092 45.8971 12.2676 45.6867 11.6487C45.4762 11.0297 45.371 10.3581 45.371 9.63395ZM47.0886 9.42041V9.63395C47.0886 10.1353 47.1474 10.6088 47.265 11.0545C47.3826 11.4939 47.559 11.8839 47.7942 12.2243C48.0356 12.5647 48.3358 12.834 48.6948 13.032C49.0538 13.2239 49.4716 13.3199 49.9482 13.3199C50.4186 13.3199 50.8302 13.2239 51.183 13.032C51.542 12.834 51.8391 12.5647 52.0743 12.2243C52.3095 11.8839 52.4859 11.4939 52.6035 11.0545C52.7273 10.6088 52.7892 10.1353 52.7892 9.63395V9.42041C52.7892 8.92524 52.7273 8.45793 52.6035 8.01846C52.4859 7.57281 52.3064 7.17977 52.065 6.83934C51.8298 6.49272 51.5327 6.22038 51.1737 6.02231C50.8209 5.82425 50.4062 5.72521 49.9296 5.72521C49.4592 5.72521 49.0445 5.82425 48.6855 6.02231C48.3327 6.22038 48.0356 6.49272 47.7942 6.83934C47.559 7.17977 47.3826 7.57281 47.265 8.01846C47.1474 8.45793 47.0886 8.92524 47.0886 9.42041ZM58.3877 6.07802V14.5454H56.6701V4.49967H58.3413L58.3877 6.07802ZM61.5259 4.44396L61.5166 6.04088C61.3742 6.00993 61.2381 5.99136 61.1081 5.98517C60.9843 5.9728 60.8419 5.96661 60.681 5.96661C60.2849 5.96661 59.9351 6.0285 59.6318 6.15229C59.3286 6.27609 59.0717 6.4494 58.8612 6.67222C58.6508 6.89505 58.4837 7.1612 58.3599 7.47068C58.2423 7.77397 58.1649 8.10821 58.1278 8.4734L57.645 8.75193C57.645 8.14535 57.7038 7.57591 57.8214 7.0436C57.9452 6.51129 58.134 6.04088 58.3877 5.63237C58.6415 5.21766 58.9634 4.8958 59.3533 4.66679C59.7495 4.43158 60.2199 4.31398 60.7645 4.31398C60.8883 4.31398 61.0307 4.32945 61.1916 4.3604C61.3526 4.38516 61.464 4.41301 61.5259 4.44396ZM66.1031 13.5056L68.8977 4.49967H70.736L66.7066 16.0959C66.6137 16.3435 66.4899 16.6096 66.3352 16.8944C66.1866 17.1853 65.9948 17.4607 65.7596 17.7207C65.5244 17.9806 65.2396 18.1911 64.9054 18.352C64.5774 18.5191 64.1843 18.6027 63.7263 18.6027C63.5901 18.6027 63.4168 18.5841 63.2064 18.547C62.9959 18.5099 62.8474 18.4789 62.7607 18.4542L62.7514 17.0615C62.8009 17.0677 62.8783 17.0739 62.9835 17.0801C63.0949 17.0924 63.1723 17.0986 63.2156 17.0986C63.6056 17.0986 63.9367 17.046 64.2091 16.9408C64.4814 16.8418 64.7104 16.6715 64.8961 16.4301C65.088 16.1949 65.252 15.87 65.3882 15.4553L66.1031 13.5056ZM64.0512 4.49967L66.6602 12.2986L67.1058 14.109L65.871 14.7404L62.1758 4.49967H64.0512ZM10.2573 32.634V32.4204C10.2573 31.6962 10.3625 31.0247 10.573 30.4057C10.7834 29.7805 11.0867 29.2389 11.4828 28.7809C11.879 28.3167 12.3587 27.9577 12.9219 27.7039C13.4852 27.444 14.1165 27.314 14.816 27.314C15.5216 27.314 16.156 27.444 16.7193 27.7039C17.2887 27.9577 17.7715 28.3167 18.1676 28.7809C18.57 29.2389 18.8763 29.7805 19.0868 30.4057C19.2972 31.0247 19.4025 31.6962 19.4025 32.4204V32.634C19.4025 33.3581 19.2972 34.0297 19.0868 34.6487C18.8763 35.2676 18.57 35.8092 18.1676 36.2734C17.7715 36.7315 17.2918 37.0905 16.7285 37.3504C16.1715 37.6042 15.5401 37.7311 14.8345 37.7311C14.1289 37.7311 13.4945 37.6042 12.9312 37.3504C12.368 37.0905 11.8852 36.7315 11.4828 36.2734C11.0867 35.8092 10.7834 35.2676 10.573 34.6487C10.3625 34.0297 10.2573 33.3581 10.2573 32.634ZM11.9749 32.4204V32.634C11.9749 33.1353 12.0337 33.6088 12.1513 34.0545C12.2689 34.4939 12.4453 34.8839 12.6805 35.2243C12.9219 35.5647 13.2221 35.834 13.5811 36.032C13.9401 36.2239 14.3579 36.3199 14.8345 36.3199C15.3049 36.3199 15.7165 36.2239 16.0694 36.032C16.4283 35.834 16.7254 35.5647 16.9607 35.2243C17.1959 34.8839 17.3723 34.4939 17.4899 34.0545C17.6137 33.6088 17.6756 33.1353 17.6756 32.634V32.4204C17.6756 31.9252 17.6137 31.4579 17.4899 31.0185C17.3723 30.5728 17.1928 30.1798 16.9514 29.8393C16.7162 29.4927 16.4191 29.2204 16.0601 29.0223C15.7073 28.8242 15.2926 28.7252 14.816 28.7252C14.3455 28.7252 13.9308 28.8242 13.5718 29.0223C13.219 29.2204 12.9219 29.4927 12.6805 29.8393C12.4453 30.1798 12.2689 30.5728 12.1513 31.0185C12.0337 31.4579 11.9749 31.9252 11.9749 32.4204ZM23.2741 29.6444V37.5454H21.5564V27.4997H23.1812L23.2741 29.6444ZM22.8655 32.1419L22.1506 32.114C22.1568 31.427 22.259 30.7925 22.457 30.2107C22.6551 29.6227 22.9336 29.1121 23.2926 28.6788C23.6516 28.2455 24.0787 27.9113 24.5739 27.6761C25.0752 27.4347 25.6292 27.314 26.2358 27.314C26.731 27.314 27.1766 27.3821 27.5727 27.5182C27.9689 27.6482 28.3062 27.8587 28.5847 28.1496C28.8695 28.4405 29.0861 28.8181 29.2347 29.2823C29.3832 29.7403 29.4575 30.3005 29.4575 30.9628V37.5454H27.7306V30.9442C27.7306 30.4181 27.6532 29.9972 27.4985 29.6815C27.3437 29.3596 27.1178 29.1275 26.8207 28.9852C26.5236 28.8366 26.1584 28.7623 25.7251 28.7623C25.2981 28.7623 24.9081 28.8521 24.5553 29.0316C24.2087 29.2111 23.9085 29.4587 23.6547 29.7744C23.4071 30.09 23.2122 30.4521 23.0698 30.8606C22.9336 31.263 22.8655 31.69 22.8655 32.1419ZM33.9326 23.2845V37.5454H32.2057V23.2845H33.9326ZM38.5562 27.4997V37.5454H36.8293V27.4997H38.5562ZM36.6993 24.835C36.6993 24.5565 36.7829 24.3213 36.95 24.1294C37.1233 23.9375 37.3771 23.8416 37.7113 23.8416C38.0394 23.8416 38.2901 23.9375 38.4634 24.1294C38.6429 24.3213 38.7326 24.5565 38.7326 24.835C38.7326 25.1012 38.6429 25.3302 38.4634 25.5221C38.2901 25.7078 38.0394 25.8006 37.7113 25.8006C37.3771 25.8006 37.1233 25.7078 36.95 25.5221C36.7829 25.3302 36.6993 25.1012 36.6993 24.835ZM43.0313 29.6444V37.5454H41.3137V27.4997H42.9385L43.0313 29.6444ZM42.6228 32.1419L41.9079 32.114C41.9141 31.427 42.0162 30.7925 42.2143 30.2107C42.4123 29.6227 42.6909 29.1121 43.0499 28.6788C43.4089 28.2455 43.836 27.9113 44.3311 27.6761C44.8325 27.4347 45.3865 27.314 45.993 27.314C46.4882 27.314 46.9339 27.3821 47.33 27.5182C47.7261 27.6482 48.0635 27.8587 48.342 28.1496C48.6267 28.4405 48.8434 28.8181 48.9919 29.2823C49.1405 29.7403 49.2147 30.3005 49.2147 30.9628V37.5454H47.4878V30.9442C47.4878 30.4181 47.4105 29.9972 47.2557 29.6815C47.101 29.3596 46.8751 29.1275 46.578 28.9852C46.2809 28.8366 45.9157 28.7623 45.4824 28.7623C45.0553 28.7623 44.6654 28.8521 44.3126 29.0316C43.9659 29.2111 43.6657 29.4587 43.412 29.7744C43.1644 30.09 42.9694 30.4521 42.827 30.8606C42.6909 31.263 42.6228 31.69 42.6228 32.1419ZM55.9924 37.7311C55.2929 37.7311 54.6585 37.6135 54.0891 37.3783C53.5258 37.1369 53.0399 36.7996 52.6314 36.3663C52.2291 35.933 51.9196 35.4193 51.703 34.8251C51.4863 34.2309 51.378 33.581 51.378 32.8753V32.4854C51.378 31.6684 51.4987 30.9411 51.7401 30.3036C51.9815 29.6598 52.3095 29.1152 52.7242 28.6695C53.1389 28.2239 53.6094 27.8865 54.1355 27.6575C54.6616 27.4285 55.2063 27.314 55.7695 27.314C56.4875 27.314 57.1065 27.4378 57.6264 27.6854C58.1525 27.9329 58.5827 28.2796 58.9169 28.7252C59.2512 29.1647 59.4988 29.6846 59.6597 30.285C59.8206 30.8792 59.9011 31.5291 59.9011 32.2347V33.0053H52.3993V31.6034H58.1835V31.4734C58.1587 31.0277 58.0659 30.5945 57.9049 30.1736C57.7502 29.7527 57.5026 29.4061 57.1622 29.1337C56.8218 28.8614 56.3575 28.7252 55.7695 28.7252C55.3796 28.7252 55.0206 28.8088 54.6925 28.9759C54.3645 29.1368 54.0829 29.3782 53.8477 29.7001C53.6125 30.0219 53.4299 30.415 53.2999 30.8792C53.1699 31.3434 53.1049 31.8788 53.1049 32.4854V32.8753C53.1049 33.3519 53.1699 33.8007 53.2999 34.2216C53.436 34.6363 53.631 35.0015 53.8848 35.3171C54.1448 35.6328 54.4573 35.8804 54.8225 36.0599C55.1939 36.2394 55.6148 36.3292 56.0852 36.3292C56.6918 36.3292 57.2055 36.2054 57.6264 35.9578C58.0473 35.7102 58.4156 35.379 58.7313 34.9643L59.7711 35.7907C59.5545 36.1187 59.279 36.4313 58.9448 36.7284C58.6106 37.0255 58.199 37.2669 57.71 37.4526C57.2272 37.6383 56.6546 37.7311 55.9924 37.7311Z" fill="white"/>

</svg>
